<svg id="Layer_1" data-name="Layer 1" xmlns="http://www.w3.org/2000/svg" viewBox="0 0 88.45 93.95"><defs><style>.cls-1{fill:#f9cde5;}</style></defs><title>white-heart</title><path class="cls-1" d="M92.75,25.78C92.29,30.64,90.4,35.54,88.41,40A181.72,181.72,0,0,1,50.74,95.07c-0.11.11-2.23,2.17-2.24,2.16A260.11,260.11,0,0,1,22.73,64.29,199.86,199.86,0,0,1,7.54,36.82C5.24,31.7,3.69,26,4.75,20.5,6.26,12.61,12.92,6.06,20.59,4A22.35,22.35,0,0,1,48.65,25.85a2.46,2.46,0,0,0-.07.31,2.29,2.29,0,0,1,0-.31A22.44,22.44,0,0,1,71,3.28,23.26,23.26,0,0,1,90.19,14,18.39,18.39,0,0,1,92.75,25.78Z" transform="translate(-4.41 -3.28)"/></svg>